# xmcd
#
# Track frame offsets:
#	150
#	15338
#	37838
#	53377
#	66769
#	87263
#	99083
#	110488
#	125539
#	140590
#	159266
#	175567
#	191304
#	209670
#	223246
#
# Disc length: 3210 seconds
#
# Revision: 2
# Processed by: cddbd v1.5.1PL0 Copyright (c) Steve Scherf et al.
# Submitted via: dBpowerAMP V4.0
#
DISCID=bd0c880f
DTITLE=Eric Clapton - Me and Mr. Johnson
DYEAR=2004
DGENRE=Blues
TTITLE0=When you got a good friend
TTITLE1=Little queen of spades
TTITLE2=They re red got
TTITLE3=Me and the devil blues
TTITLE4=Traveling riverside blues
TTITLE5=Last fair deal gone down
TTITLE6=Stop breakin down blues
TTITLE7=Milkcow s calf blues
TTITLE8=Kind hearted woman blues
TTITLE9=Come on in my kitchen
TTITLE10=If i had possession over judgement day
TTITLE11=Love in vain
TTITLE12=32-20 Blues
TTITLE13=Hell hound on my  trail
TTITLE14=Extra track
EXTD=
EXTT0=
EXTT1=
EXTT2=
EXTT3=
EXTT4=
EXTT5=
EXTT6=
EXTT7=
EXTT8=
EXTT9=
EXTT10=
EXTT11=
EXTT12=
EXTT13=
EXTT14=
PLAYORDER=
